<svg width="187" height="45" viewBox="0 0 187 45" fill="none" xmlns="http://www.w3.org/2000/svg">
<path d="M23.9073 4.001C22.8312 3.98906 21.7977 4.19004 20.893 4.74426C17.9572 6.54421 18.1995 11.0506 21.6012 12.3182C22.9305 12.8137 24.4617 13.4266 25.852 13.7281C25.0379 9.72621 28.7845 6.99892 32.7603 6.54122C32.0858 5.94423 30.7991 5.69747 29.9271 5.40693C28.1701 4.82087 25.9623 4.02388 23.9073 4.001ZM23.2426 5.02286C23.7119 5.02784 24.1986 5.30743 23.8756 5.79597C23.51 6.35118 22.4951 6.39596 22.0563 7.02579C21.8555 7.31235 21.8741 8.1183 21.4943 8.20984C20.7696 8.38396 20.9945 7.27454 21.0643 6.9452C21.2389 6.12034 22.052 5.32435 22.9294 5.06366C23.0265 5.0348 23.1335 5.02187 23.2426 5.02286ZM21.5598 9.21379C22.0683 9.22573 22.3761 9.95407 21.8468 10.2406C21.1789 10.6028 20.6332 9.61875 21.2607 9.28941C21.3644 9.23469 21.4648 9.2118 21.5598 9.21379ZM22.1327 9.6098L22.2211 9.93218H22.1327V9.6098Z" fill="#FDBB29"/>
<path d="M23.1957 4.92635V5.00694H23.5504L23.1957 4.92635Z" fill="#FEE7B3"/>
<path d="M25.7636 13.8087C26.8823 13.9898 28.0489 14.747 29.041 15.2365C31.0774 16.2435 33.0746 17.3399 34.9746 18.5499C36.21 19.3369 37.4389 20.3846 38.7834 20.9946C38.5259 20.3478 38.1395 19.7638 38.0828 19.0573C37.8994 16.7688 39.8267 14.4734 42.4143 14.3002C43.7829 14.2087 44.6592 14.7639 45.8684 15.1808C45.3577 14.3748 44.4628 13.7341 43.7436 13.0814C41.5882 11.1272 39.0246 9.49538 36.3923 8.12228C35.3795 7.59393 34.023 6.67854 32.8498 6.53625C30.164 6.20989 27.0645 8.44864 26.1369 10.5789C25.6676 11.6545 25.8291 12.6843 25.7636 13.8087Z" fill="#F9A213"/>
<path d="M20.9814 6.9452V7.18698H21.0693L20.9814 6.9452Z" fill="#FEE09E"/>
<path d="M21.1582 8.2367V8.31729H21.6012L21.1582 8.2367Z" fill="#FEE8B6"/>
<path d="M20.893 9.60979V9.93218H20.9809L20.893 9.60979Z" fill="#FEDD93"/>
<path d="M19.83 11.0635L19.2985 11.7898V11.8704C20.7609 13.1928 22.5998 13.4873 24.4355 14.1997C25.72 14.6982 26.998 15.4763 28.3327 15.8275C28.2224 14.6763 27.4399 14.3957 26.3835 13.953C24.8284 13.3012 23.1597 12.9092 21.6012 12.2844C20.8973 12.0018 20.4433 11.4565 19.83 11.0635Z" fill="#FFA200"/>
<path d="M13.63 16.3111C14.2849 16.5907 15.0182 16.8594 15.3129 17.523C15.4744 17.8862 15.147 18.8046 15.5192 19.0006C16.2395 19.3797 17.5207 19.2991 18.3239 19.2991C21.6416 19.2981 25.1929 17.8882 25.8531 14.6962C24.3165 14.2196 22.5147 13.7092 21.0698 13.0515C20.583 12.8296 19.8136 11.9689 19.2985 11.9679C18.827 11.967 18.1384 12.744 17.7935 13.0077C16.4719 14.0147 14.6363 15.0375 13.63 16.3111Z" fill="#F9EA76"/>
<path d="M42.0607 14.3301C40.3091 14.6127 38.8565 15.736 38.2978 17.2802C37.6659 19.0304 38.1351 20.8423 40.3779 21.0612C40.8853 21.111 41.467 21.113 41.9712 21.0403C43.4762 20.8244 44.8262 19.913 45.4712 18.6533C45.9372 17.7419 46.3672 15.8256 45.469 15.0027C45.0161 14.5878 44.1779 14.4156 43.5657 14.3281C43.0899 14.2604 42.5355 14.2535 42.0607 14.3301Z" fill="#FEE5AE"/>
<path d="M19.2985 14.738C18.3927 14.9151 17.2249 15.8733 18.253 16.6514C18.9853 17.2066 20.2589 17.2524 21.1582 17.0773C22.124 16.8892 23.2044 15.9171 22.1295 15.145C21.4277 14.6425 20.1443 14.5738 19.2985 14.738Z" fill="#4AAB69"/>
<path d="M25.8531 14.7778C25.553 15.6395 25.3642 16.332 24.6755 17.0375C22.5431 19.2205 18.1624 19.8792 15.2245 18.8951C14.4704 20.0613 12.4874 20.3349 11.1505 19.9916C10.7063 19.8772 9.88561 19.2682 9.46762 19.4374C9.09657 19.5876 8.36209 20.114 8.34572 20.514C8.33044 20.906 9.01908 21.8741 8.39265 22.111C7.83606 22.3219 7.65708 21.301 7.60797 20.9946C6.69451 21.2284 5.96768 22.3896 5.50058 23.094C3.96833 25.4074 3.45976 28.7287 4.68534 31.25L5.5355 29.1506L6.81129 26.8899C6.36929 26.7695 5.9644 26.5059 6.38894 26.0989C6.85494 25.6522 7.30785 26.0382 7.78477 25.7875C8.64257 25.3377 9.16968 24.5706 10.1759 24.3059C10.4466 23.0851 12.2757 22.6423 13.4532 22.694C14.0469 22.7199 14.8032 22.9109 15.3129 23.1925C15.6425 23.3736 15.8913 23.6721 16.2875 23.7288C17.0001 23.8293 17.8928 23.5895 18.5902 23.4592C20.3484 23.1308 22.303 22.8224 23.904 22.0443C23.6966 21.7577 23.4445 21.496 23.3474 21.1568C22.5671 18.4474 26.4948 18.6115 28.2442 18.9767C28.5531 18.1111 29.0682 16.8703 28.4265 16.0056C28.0183 15.4554 26.5385 14.9579 25.8531 14.7778Z" fill="#F9DB54"/>
<path d="M28.0664 14.7778C28.2988 16.2086 29.5659 16.5181 30.8122 17.1996C32.877 18.33 34.908 19.5458 36.8354 20.8642C37.6997 21.4552 38.5291 22.4433 39.4917 22.8522V22.9328C36.5069 23.5627 33.5428 24.6601 30.6354 25.5437C29.4426 25.9059 28.1308 26.1815 27.978 27.5357L43.832 23.0134L42.5027 23.0104L40.6431 22.494L38.6797 20.9289L31.5205 16.4733L28.0664 14.7778Z" fill="#FF9200"/>
<path d="M45.6032 15.1002C45.7451 15.6614 45.9852 16.2086 45.9492 16.7957C45.8171 18.9011 44.0786 20.8453 41.706 21.0622C40.475 21.1747 39.6314 20.7995 38.5182 20.4294C38.7736 21.1657 39.4186 21.8184 40.1116 22.2453C42.4885 23.7079 45.947 23.0184 47.2064 20.5916C48.0697 18.929 47.7608 15.8723 45.6032 15.1002Z" fill="#FED987"/>
<path d="M18.767 15.8275C19.185 16.5549 21.2629 16.5509 21.6896 15.8275C20.7838 15.3917 19.6641 15.3629 18.767 15.8275Z" fill="#F9EA76"/>
<path d="M17.7935 15.6654V16.0693H17.8814L17.7935 15.6654Z" fill="#8BC26E"/>
<path d="M22.5758 15.746V16.0693H22.6637L22.5758 15.746Z" fill="#AECF70"/>
<path d="M28.5095 15.9887L28.671 17.6036L28.2443 19.0573C29.555 19.6254 29.8911 21.2493 28.5979 22.0363C27.2664 22.8473 25.2802 22.7995 23.9924 21.9637H23.904C23.1837 22.4124 22.2561 22.6114 21.4244 22.8283C19.7274 23.2731 17.8808 23.7398 16.1107 23.7408C17.3057 26.7307 11.766 27.7586 10.3615 25.5168C10.1312 25.1497 10.1759 24.7119 10.1759 24.3059C9.07367 24.485 8.38285 25.3656 7.51959 25.9208C7.65928 26.1138 7.94958 26.3795 7.74332 26.6123C7.48904 26.9009 6.98374 26.8073 6.70326 27.076C5.75161 27.9884 5.21249 29.659 4.85016 30.846C4.60024 31.6669 5.16556 32.5037 5.47768 33.2689C6.16196 34.9415 7.01321 36.621 7.48576 38.3553C7.65383 38.9682 7.43119 40.5055 7.98232 40.8905C8.30864 41.1184 8.80192 40.9741 8.90778 40.6129C9.11841 39.8985 8.93616 38.9334 8.93616 38.1941C8.93616 35.3305 9.63899 32.1465 12.3903 30.3784C13.6039 29.5993 15.0619 29.2351 16.4643 28.8501C17.4399 28.5824 18.4418 28.1138 19.4764 28.1018C23.3245 28.0581 23.0189 32.4888 23.0189 34.8837C23.0189 35.5006 22.6238 37.8966 23.6388 37.8966C24.6079 37.8966 24.2587 36.017 24.2587 35.4489V29.4729C24.2587 28.8929 24.0851 27.7675 24.7989 27.4412C25.3839 27.1735 25.5814 28.0929 25.5868 28.4242C25.6032 29.5705 25.4821 30.7535 25.5923 31.8958C25.6294 32.2888 26.0136 32.6579 26.4676 32.445C27.058 32.1694 26.8266 31.1037 26.8266 30.6043C26.8266 29.1137 26.5963 27.3566 27.6178 26.082C28.3883 25.1188 29.7263 24.9049 30.9006 24.5477C33.4304 23.7796 36.0092 22.8343 38.6066 22.2871C38.1701 21.4353 36.8572 20.8155 36.0376 20.2792C33.7054 18.7558 31.1691 17.0036 28.5095 15.9887Z" fill="#F9D129"/>
<path d="M15.2245 18.2494H15.3129V18.6533C15.7145 17.7807 15.123 16.9002 14.2499 16.527C12.9218 15.9579 9.97731 15.7897 9.30395 17.3618C8.95799 18.1688 9.78087 18.8832 10.5306 19.1678C11.8381 19.6633 14.585 19.6881 15.2245 18.2494Z" fill="#FF6965"/>
<path d="M19.83 16.3111V16.3927H20.6278L19.83 16.3111Z" fill="#93C56F"/>
<path d="M19.7416 17.119V17.1996H20.5383L19.7416 17.119Z" fill="#B3D071"/>
<path d="M9.20245 18.0076C9.20245 20.7767 15.3053 20.913 15.3129 18.2494H15.2245C13.845 20.3309 10.5568 19.4752 9.20245 18.0076Z" fill="#FF4A45"/>
<path d="M25.4984 18.6911C24.3842 18.8742 22.47 19.8513 23.5973 21.0612C24.3744 21.895 25.971 22.106 27.0929 21.9139C27.4847 21.8473 27.8732 21.7159 28.2443 21.5836C29.3618 21.1856 29.8387 20.0145 28.7714 19.2822C27.9311 18.7051 26.521 18.523 25.4984 18.6911Z" fill="#FF6965"/>
<path d="M7.52832 19.6046C6.79385 19.8493 7.60472 21.4513 7.84263 21.8781C7.94631 22.0652 8.14603 22.2284 8.39267 22.1527C8.66441 22.0682 8.67315 21.7766 8.64368 21.5597C8.58256 21.1189 8.26607 19.3588 7.52832 19.6046Z" fill="#4AAB69"/>
<path d="M17.9703 20.7319C16.6858 21.1667 17.9736 21.9856 18.8511 21.6493C19.675 21.3329 18.5597 20.5329 17.9703 20.7319Z" fill="#BD5B31"/>
<path d="M23.2841 20.6722C23.3452 23.3448 29.3705 23.3079 29.3956 20.6722H29.3072C27.9987 22.7179 24.7563 22.0513 23.2841 20.6722Z" fill="#FF4A45"/>
<path d="M32.3194 21.307C31.1538 21.7448 32.3783 22.5279 33.199 22.2144C34.0611 21.8851 32.9589 21.0662 32.3194 21.307Z" fill="#B44031"/>
<path d="M17.8819 21.7219V21.8025H18.5018L17.8819 21.7219Z" fill="#DA9942"/>
<path d="M26.915 27.8581C28.2039 27.5864 28.086 26.4671 29.2178 25.9984C32.4318 24.6701 36.1336 23.9288 39.4917 22.9328C38.4003 21.8582 36.8354 22.7448 35.5061 23.1487C33.8854 23.6413 32.2561 24.1089 30.6354 24.6014C29.83 24.8462 28.8445 25.0134 28.157 25.486C27.381 26.0183 26.9347 26.9904 26.915 27.8581Z" fill="#F05D00"/>
<path d="M12.5682 22.7259C11.3873 22.894 9.26138 23.9069 10.5492 25.1865C11.3557 25.9865 12.8705 26.1288 13.9847 25.9656C14.9768 25.8203 16.9565 25.0303 16.1336 23.8214C15.4679 22.8443 13.7239 22.5617 12.5682 22.7259Z" fill="#FF6965"/>
<path d="M21.4244 24.4671V24.5477H23.8156L21.4244 24.4671Z" fill="#CBC73A"/>
<path d="M21.2749 24.6313C21.0163 24.7895 21.0392 25.1646 21.3491 25.2492C21.8064 25.3726 23.6541 25.4641 24.0273 25.1915C24.2991 24.9935 24.083 24.6412 23.8101 24.5736C23.3201 24.4512 21.7016 24.3716 21.2749 24.6313Z" fill="#4AAB69"/>
<path d="M10.1759 24.7089C10.201 27.4133 16.2624 27.3825 16.2875 24.7089H16.1991C15.0051 26.8024 11.5521 26.0999 10.1759 24.7089Z" fill="#FF4A45"/>
<path d="M21.336 25.2751V25.3556H23.904L21.336 25.2751Z" fill="#78B558"/>
<path d="M6.81131 25.7586V25.8402H7.2533L6.81131 25.7586Z" fill="#D38641"/>
<path d="M6.6356 25.8999C5.43949 26.3288 6.75674 27.1397 7.60254 26.7556C8.43414 26.3795 7.22056 25.69 6.6356 25.8999Z" fill="#B44031"/>
<path d="M24.2587 28.5854C24.5839 28.5416 25.2878 28.461 25.4941 28.2033C25.7265 27.9138 25.3249 27.3616 24.967 27.3536C24.3765 27.3407 24.2674 28.2063 24.2587 28.5854ZM8.93616 39.1632C10.1159 39.1314 9.91074 38.2001 9.91074 37.3872C9.91074 35.435 10.6037 33.2798 12.0738 31.8221C13.367 30.5416 15.2496 30.1376 16.9958 29.6212C17.7488 29.3993 18.5913 29.0322 19.3869 28.9973C20.4073 28.9526 20.9923 29.5108 22.0443 29.3118C21.8239 28.5964 20.9159 28.2909 20.1847 28.1546C18.4756 27.8352 16.3792 28.8262 14.7814 29.3118C13.8745 29.5874 12.9894 29.9147 12.2135 30.4361C9.16644 32.4868 8.93616 36.029 8.93616 39.1632Z" fill="#F05D00"/>
<path d="M9.64554 28.2232C8.67424 28.4103 7.62327 29.072 7.15836 29.8769C6.58431 30.8709 7.41155 31.5515 8.49307 31.3734C9.49165 31.2102 10.571 30.5625 11.0141 29.7157C11.5183 28.7516 10.7664 28.0063 9.64554 28.2232Z" fill="#4AAB69"/>
<path d="M7.87319 30.6043C8.92416 30.5834 10.0995 29.9734 10.3538 28.9894C9.35197 28.9973 8.01943 29.6122 7.87319 30.6043Z" fill="#F9D129"/>
<path d="M9.91074 38.6787H9.99913C10.5197 36.629 11.3513 33.9266 13.0996 32.4749C15.1699 30.7555 18.4724 30.3247 21.0698 29.5545C19.9424 28.3576 17.859 29.3595 16.5527 29.7247C15.3064 30.0749 14.0022 30.4003 12.9218 31.0918C10.2327 32.8132 9.91074 35.9464 9.91074 38.6787Z" fill="#FF9200"/>
<path d="M6.8997 30.3615V30.7654H6.98762L6.8997 30.3615Z" fill="#B0C143"/>
<g filter="url(#filter0_d_1_2)">
<path d="M62.384 32.1921C60.928 32.1921 59.752 31.7681 58.856 30.9201C57.976 30.0721 57.536 28.9441 57.536 27.5361V19.6641C57.536 18.2561 57.976 17.1281 58.856 16.2801C59.752 15.4321 60.928 15.0081 62.384 15.0081C63.344 15.0081 64.184 15.2001 64.904 15.5841C65.64 15.9681 66.208 16.5041 66.608 17.1921C67.024 17.8801 67.232 18.6721 67.232 19.5681V20.2401C67.232 20.4001 67.152 20.4801 66.992 20.4801H65.768C65.608 20.4801 65.528 20.4001 65.528 20.2401V19.5681C65.528 18.6561 65.24 17.9201 64.664 17.3601C64.088 16.7841 63.328 16.4961 62.384 16.4961C61.44 16.4961 60.68 16.7841 60.104 17.3601C59.528 17.9201 59.24 18.6721 59.24 19.6161V27.5841C59.24 28.5121 59.528 29.2641 60.104 29.8401C60.696 30.4161 61.464 30.7041 62.408 30.7041C63.352 30.7041 64.104 30.4321 64.664 29.8881C65.24 29.3441 65.528 28.6081 65.528 27.6801V25.0641C65.528 25.0001 65.496 24.9681 65.432 24.9681H62.624C62.464 24.9681 62.384 24.8881 62.384 24.7281V23.7201C62.384 23.5601 62.464 23.4801 62.624 23.4801H66.992C67.152 23.4801 67.232 23.5601 67.232 23.7201V27.4641C67.232 28.9201 66.792 30.0721 65.912 30.9201C65.032 31.7681 63.856 32.1921 62.384 32.1921ZM74.3928 32.1921C73.2248 32.1921 72.2648 31.8801 71.5128 31.2561C70.7608 30.6161 70.3048 29.7601 70.1448 28.6881C70.0488 27.8881 70.0008 26.9601 70.0008 25.9041C70.0008 24.8481 70.0488 23.9361 70.1448 23.1681C70.2888 22.1121 70.7368 21.2641 71.4888 20.6241C72.2568 19.9841 73.2248 19.6641 74.3928 19.6641C75.5608 19.6641 76.5208 19.9841 77.2728 20.6241C78.0408 21.2641 78.4968 22.1121 78.6408 23.1681C78.7368 23.8081 78.7848 24.7201 78.7848 25.9041C78.7848 27.1201 78.7368 28.0481 78.6408 28.6881C78.4968 29.7601 78.0408 30.6161 77.2728 31.2561C76.5208 31.8801 75.5608 32.1921 74.3928 32.1921ZM74.3928 30.7041C75.0808 30.7041 75.6568 30.4961 76.1208 30.0801C76.6008 29.6481 76.8888 29.0801 76.9848 28.3761C77.0488 27.7841 77.0808 26.9681 77.0808 25.9281C77.0808 24.8721 77.0488 24.0561 76.9848 23.4801C76.9048 22.7761 76.6248 22.2161 76.1448 21.8001C75.6808 21.3681 75.0968 21.1521 74.3928 21.1521C73.6888 21.1521 73.1048 21.3681 72.6408 21.8001C72.1768 22.2161 71.8968 22.7761 71.8008 23.4801C71.7368 24.0561 71.7048 24.8721 71.7048 25.9281C71.7048 26.9841 71.7368 27.8001 71.8008 28.3761C71.8808 29.0801 72.1528 29.6481 72.6168 30.0801C73.0968 30.4961 73.6888 30.7041 74.3928 30.7041ZM90.3881 32.0001C90.2601 32.0001 90.1721 31.9361 90.1241 31.8081L87.1481 24.3921C87.1321 24.3441 87.1001 24.3201 87.0521 24.3201H83.9561C83.8921 24.3201 83.8601 24.3521 83.8601 24.4161V31.7601C83.8601 31.9201 83.7801 32.0001 83.6201 32.0001H82.3961C82.2361 32.0001 82.1561 31.9201 82.1561 31.7601V15.4401C82.1561 15.2801 82.2361 15.2001 82.3961 15.2001H87.4841C88.3161 15.2001 89.0521 15.3921 89.6921 15.7761C90.3481 16.1601 90.8521 16.7041 91.2041 17.4081C91.5721 18.1121 91.7561 18.9201 91.7561 19.8321C91.7561 20.9201 91.4921 21.8481 90.9641 22.6161C90.4361 23.3841 89.7161 23.8961 88.8041 24.1521C88.7401 24.1841 88.7241 24.2241 88.7561 24.2721L91.8521 31.7121L91.8761 31.8081C91.8761 31.9361 91.8041 32.0001 91.6601 32.0001H90.3881ZM83.9561 16.6881C83.8921 16.6881 83.8601 16.7201 83.8601 16.7841V22.8561C83.8601 22.9201 83.8921 22.9521 83.9561 22.9521H87.2681C88.1001 22.9521 88.7721 22.6641 89.2841 22.0881C89.7961 21.5121 90.0521 20.7601 90.0521 19.8321C90.0521 18.8881 89.7961 18.1281 89.2841 17.5521C88.7721 16.9761 88.1001 16.6881 87.2681 16.6881H83.9561ZM98.6043 30.7041C99.2123 30.7041 99.7323 30.5521 100.164 30.2481C100.612 29.9281 100.932 29.5041 101.124 28.9761C101.172 28.8321 101.268 28.7761 101.412 28.8081L102.516 29.0241C102.596 29.0401 102.644 29.0801 102.66 29.1441C102.692 29.1921 102.7 29.2481 102.684 29.3121C102.412 30.2081 101.916 30.9121 101.196 31.4241C100.476 31.9361 99.6043 32.1921 98.5803 32.1921C97.4123 32.1921 96.4603 31.8881 95.7243 31.2801C94.9883 30.6561 94.5323 29.8161 94.3563 28.7601C94.2923 28.3601 94.2523 27.8881 94.2363 27.3441C94.2203 26.8001 94.2123 26.3521 94.2123 26.0001C94.2123 25.6321 94.2123 25.3761 94.2123 25.2321C94.2123 24.4161 94.2443 23.7521 94.3083 23.2401C94.4363 22.1681 94.8763 21.3041 95.6283 20.6481C96.3963 19.9921 97.3563 19.6641 98.5083 19.6641C99.7403 19.6641 100.74 20.0161 101.508 20.7201C102.276 21.4241 102.708 22.3521 102.804 23.5041C102.852 24.0321 102.876 25.0001 102.876 26.4081C102.876 26.5681 102.796 26.6481 102.636 26.6481H96.0123C95.9483 26.6481 95.9163 26.6801 95.9163 26.7441C95.9163 27.2401 95.9323 27.7921 95.9643 28.4001C96.0443 29.0881 96.3163 29.6481 96.7803 30.0801C97.2603 30.4961 97.8683 30.7041 98.6043 30.7041ZM98.5323 21.1521C97.8123 21.1521 97.2203 21.3681 96.7563 21.8001C96.3083 22.2161 96.0443 22.7681 95.9643 23.4561C95.9323 24.1281 95.9163 24.6881 95.9163 25.1361C95.9163 25.2001 95.9483 25.2321 96.0123 25.2321H101.076C101.14 25.2321 101.172 25.2001 101.172 25.1361C101.172 24.6721 101.14 24.1201 101.076 23.4801C100.996 22.7921 100.724 22.2321 100.26 21.8001C99.8123 21.3681 99.2363 21.1521 98.5323 21.1521ZM109.209 32.1201C107.977 32.1201 106.985 31.8241 106.233 31.2321C105.481 30.6401 105.105 29.8801 105.105 28.9521V28.7361C105.105 28.5761 105.185 28.4961 105.345 28.4961H106.521C106.681 28.4961 106.761 28.5761 106.761 28.7361V28.9041C106.761 29.4161 106.985 29.8641 107.433 30.2481C107.897 30.6161 108.489 30.8001 109.209 30.8001C109.913 30.8001 110.481 30.6161 110.913 30.2481C111.345 29.8801 111.561 29.4161 111.561 28.8561C111.561 28.4561 111.441 28.1201 111.201 27.8481C110.961 27.5761 110.665 27.3601 110.313 27.2001C109.961 27.0401 109.473 26.8561 108.849 26.6481C108.097 26.3921 107.473 26.1361 106.977 25.8801C106.481 25.6241 106.057 25.2721 105.705 24.8241C105.369 24.3601 105.201 23.7761 105.201 23.0721C105.201 22.0481 105.561 21.2401 106.281 20.6481C107.001 20.0401 107.953 19.7361 109.137 19.7361C110.353 19.7361 111.321 20.0481 112.041 20.6721C112.777 21.2961 113.145 22.0961 113.145 23.0721V23.1201C113.145 23.2801 113.065 23.3601 112.905 23.3601H111.801C111.641 23.3601 111.561 23.2801 111.561 23.1201V23.0241C111.561 22.4801 111.337 22.0321 110.889 21.6801C110.457 21.3121 109.873 21.1281 109.137 21.1281C108.449 21.1281 107.889 21.3041 107.457 21.6561C107.041 21.9921 106.833 22.4321 106.833 22.9761C106.833 23.5361 107.041 23.9601 107.457 24.2481C107.889 24.5361 108.561 24.8401 109.473 25.1601C110.257 25.4161 110.905 25.6721 111.417 25.9281C111.929 26.1841 112.361 26.5441 112.713 27.0081C113.081 27.4561 113.265 28.0401 113.265 28.7601C113.265 29.7841 112.897 30.6001 112.161 31.2081C111.425 31.8161 110.441 32.1201 109.209 32.1201ZM120.771 20.9601C120.771 21.1201 120.691 21.2001 120.531 21.2001H118.251C118.187 21.2001 118.155 21.2321 118.155 21.2961V28.4961C118.155 29.2481 118.299 29.7761 118.587 30.0801C118.891 30.3681 119.371 30.5121 120.027 30.5121H120.435C120.595 30.5121 120.675 30.5921 120.675 30.7521V31.7601C120.675 31.9201 120.595 32.0001 120.435 32.0001L119.691 32.0241C118.651 32.0241 117.859 31.8161 117.315 31.4001C116.771 30.9681 116.499 30.1761 116.499 29.0241V21.2961C116.499 21.2321 116.467 21.2001 116.403 21.2001H115.203C115.043 21.2001 114.963 21.1201 114.963 20.9601V20.0961C114.963 19.9361 115.043 19.8561 115.203 19.8561H116.403C116.467 19.8561 116.499 19.8241 116.499 19.7601V17.0241C116.499 16.8641 116.579 16.7841 116.739 16.7841H117.915C118.075 16.7841 118.155 16.8641 118.155 17.0241V19.7601C118.155 19.8241 118.187 19.8561 118.251 19.8561H120.531C120.691 19.8561 120.771 19.9361 120.771 20.0961V20.9601ZM127.357 19.6641C128.637 19.6641 129.637 20.0321 130.357 20.7681C131.093 21.5041 131.461 22.4801 131.461 23.6961V31.7601C131.461 31.9201 131.381 32.0001 131.221 32.0001H129.997C129.837 32.0001 129.757 31.9201 129.757 31.7601V30.8961C129.757 30.8641 129.741 30.8401 129.709 30.8241C129.693 30.8081 129.669 30.8161 129.637 30.8481C129.285 31.2961 128.837 31.6321 128.293 31.8561C127.749 32.0801 127.141 32.1921 126.469 32.1921C125.461 32.1921 124.597 31.9201 123.877 31.3761C123.173 30.8321 122.821 29.9441 122.821 28.7121C122.821 27.4321 123.229 26.4641 124.045 25.8081C124.877 25.1361 126.005 24.8001 127.429 24.8001H129.661C129.725 24.8001 129.757 24.7681 129.757 24.7041V23.7921C129.757 22.9761 129.549 22.3361 129.133 21.8721C128.733 21.3921 128.133 21.1521 127.333 21.1521C126.709 21.1521 126.189 21.3121 125.773 21.6321C125.357 21.9361 125.109 22.3441 125.029 22.8561C125.013 23.0001 124.925 23.0721 124.765 23.0721L123.445 23.0001C123.365 23.0001 123.301 22.9761 123.253 22.9281C123.221 22.8801 123.213 22.8241 123.229 22.7601C123.341 21.8321 123.773 21.0881 124.525 20.5281C125.293 19.9521 126.237 19.6641 127.357 19.6641ZM126.805 30.7041C127.605 30.7041 128.293 30.4881 128.869 30.0561C129.461 29.6081 129.757 28.9921 129.757 28.2081V26.2641C129.757 26.2001 129.725 26.1681 129.661 26.1681H127.549C126.637 26.1681 125.909 26.3841 125.365 26.8161C124.821 27.2321 124.549 27.8321 124.549 28.6161C124.549 29.3201 124.757 29.8481 125.173 30.2001C125.589 30.5361 126.133 30.7041 126.805 30.7041ZM141.011 20.0961C141.011 19.9361 141.091 19.8561 141.251 19.8561H142.475C142.635 19.8561 142.715 19.9361 142.715 20.0961V31.7601C142.715 31.9201 142.635 32.0001 142.475 32.0001H141.251C141.091 32.0001 141.011 31.9201 141.011 31.7601V30.8241C141.011 30.7761 140.995 30.7521 140.963 30.7521C140.947 30.7521 140.923 30.7681 140.891 30.8001C140.331 31.7121 139.403 32.1681 138.107 32.1681C137.019 32.1681 136.131 31.8481 135.443 31.2081C134.755 30.5681 134.411 29.6401 134.411 28.4241V20.0961C134.411 19.9361 134.491 19.8561 134.651 19.8561H135.875C136.035 19.8561 136.115 19.9361 136.115 20.0961V27.9921C136.115 28.8401 136.323 29.5041 136.739 29.9841C137.155 30.4481 137.739 30.6801 138.491 30.6801C139.275 30.6801 139.891 30.4321 140.339 29.9361C140.787 29.4241 141.011 28.7441 141.011 27.8961V20.0961ZM150.598 19.7361C151.078 19.7361 151.486 19.8321 151.822 20.0241C151.934 20.0721 151.974 20.1681 151.942 20.3121L151.654 21.5601C151.638 21.7201 151.542 21.7681 151.366 21.7041C151.11 21.5921 150.83 21.5361 150.526 21.5361L150.238 21.5601C149.534 21.5761 148.95 21.8801 148.486 22.4721C148.022 23.0641 147.79 23.7841 147.79 24.6321V31.7601C147.79 31.9201 147.71 32.0001 147.55 32.0001H146.326C146.166 32.0001 146.086 31.9201 146.086 31.7601V20.0961C146.086 19.9361 146.166 19.8561 146.326 19.8561H147.55C147.71 19.8561 147.79 19.9361 147.79 20.0961V21.6561C147.79 21.7041 147.798 21.7281 147.814 21.7281C147.846 21.7281 147.87 21.7121 147.886 21.6801C148.158 21.0721 148.518 20.6001 148.966 20.2641C149.43 19.9121 149.974 19.7361 150.598 19.7361ZM157.826 19.6641C159.106 19.6641 160.106 20.0321 160.826 20.7681C161.562 21.5041 161.93 22.4801 161.93 23.6961V31.7601C161.93 31.9201 161.85 32.0001 161.69 32.0001H160.466C160.306 32.0001 160.226 31.9201 160.226 31.7601V30.8961C160.226 30.8641 160.21 30.8401 160.178 30.8241C160.162 30.8081 160.138 30.8161 160.106 30.8481C159.754 31.2961 159.306 31.6321 158.762 31.8561C158.218 32.0801 157.61 32.1921 156.938 32.1921C155.93 32.1921 155.066 31.9201 154.346 31.3761C153.642 30.8321 153.29 29.9441 153.29 28.7121C153.29 27.4321 153.698 26.4641 154.514 25.8081C155.346 25.1361 156.474 24.8001 157.898 24.8001H160.13C160.194 24.8001 160.226 24.7681 160.226 24.7041V23.7921C160.226 22.9761 160.018 22.3361 159.602 21.8721C159.202 21.3921 158.602 21.1521 157.802 21.1521C157.178 21.1521 156.658 21.3121 156.242 21.6321C155.826 21.9361 155.578 22.3441 155.498 22.8561C155.482 23.0001 155.394 23.0721 155.234 23.0721L153.914 23.0001C153.834 23.0001 153.77 22.9761 153.722 22.9281C153.69 22.8801 153.682 22.8241 153.698 22.7601C153.81 21.8321 154.242 21.0881 154.994 20.5281C155.762 19.9521 156.706 19.6641 157.826 19.6641ZM157.274 30.7041C158.074 30.7041 158.762 30.4881 159.338 30.0561C159.93 29.6081 160.226 28.9921 160.226 28.2081V26.2641C160.226 26.2001 160.194 26.1681 160.13 26.1681H158.018C157.106 26.1681 156.378 26.3841 155.834 26.8161C155.29 27.2321 155.018 27.8321 155.018 28.6161C155.018 29.3201 155.226 29.8481 155.642 30.2001C156.058 30.5361 156.602 30.7041 157.274 30.7041ZM169.728 19.6881C170.848 19.6881 171.728 20.0481 172.368 20.7681C173.024 21.4721 173.352 22.4401 173.352 23.6721V31.7601C173.352 31.9201 173.272 32.0001 173.112 32.0001H171.888C171.728 32.0001 171.648 31.9201 171.648 31.7601V23.9121C171.648 23.0801 171.432 22.4161 171 21.9201C170.568 21.4241 169.976 21.1761 169.224 21.1761C168.472 21.1761 167.864 21.4321 167.4 21.9441C166.952 22.4401 166.728 23.1121 166.728 23.9601V31.7601C166.728 31.9201 166.648 32.0001 166.488 32.0001H165.264C165.104 32.0001 165.024 31.9201 165.024 31.7601V20.0961C165.024 19.9361 165.104 19.8561 165.264 19.8561H166.488C166.648 19.8561 166.728 19.9361 166.728 20.0961V21.0321C166.728 21.0641 166.736 21.0881 166.752 21.1041C166.784 21.1201 166.816 21.1121 166.848 21.0801C167.472 20.1521 168.432 19.6881 169.728 19.6881ZM181.474 20.9601C181.474 21.1201 181.394 21.2001 181.234 21.2001H178.954C178.89 21.2001 178.858 21.2321 178.858 21.2961V28.4961C178.858 29.2481 179.002 29.7761 179.29 30.0801C179.594 30.3681 180.074 30.5121 180.73 30.5121H181.138C181.298 30.5121 181.378 30.5921 181.378 30.7521V31.7601C181.378 31.9201 181.298 32.0001 181.138 32.0001L180.394 32.0241C179.354 32.0241 178.562 31.8161 178.018 31.4001C177.474 30.9681 177.202 30.1761 177.202 29.0241V21.2961C177.202 21.2321 177.17 21.2001 177.106 21.2001H175.906C175.746 21.2001 175.666 21.1201 175.666 20.9601V20.0961C175.666 19.9361 175.746 19.8561 175.906 19.8561H177.106C177.17 19.8561 177.202 19.8241 177.202 19.7601V17.0241C177.202 16.8641 177.282 16.7841 177.442 16.7841H178.618C178.778 16.7841 178.858 16.8641 178.858 17.0241V19.7601C178.858 19.8241 178.89 19.8561 178.954 19.8561H181.234C181.394 19.8561 181.474 19.9361 181.474 20.0961V20.9601Z" fill="#292524"/>
</g>
<defs>
<filter id="filter0_d_1_2" x="56.536" y="15.0081" width="125.938" height="19.184" filterUnits="userSpaceOnUse" color-interpolation-filters="sRGB">
<feFlood flood-opacity="0" result="BackgroundImageFix"/>
<feColorMatrix in="SourceAlpha" type="matrix" values="0 0 0 0 0 0 0 0 0 0 0 0 0 0 0 0 0 0 127 0" result="hardAlpha"/>
<feOffset dy="1"/>
<feGaussianBlur stdDeviation="0.5"/>
<feComposite in2="hardAlpha" operator="out"/>
<feColorMatrix type="matrix" values="0 0 0 0 0 0 0 0 0 0 0 0 0 0 0 0 0 0 0.25 0"/>
<feBlend mode="normal" in2="BackgroundImageFix" result="effect1_dropShadow_1_2"/>
<feBlend mode="normal" in="SourceGraphic" in2="effect1_dropShadow_1_2" result="shape"/>
</filter>
</defs>
</svg>
