<?xml version="1.0" encoding="UTF-8" standalone="no"?>
<svg
   width="234.06844"
   height="47.932831"
   viewBox="0 0 234.06844 47.932831"
   fill="none"
   version="1.1"
   id="svg105"
   sodipodi:docname="logo-dark.svg"
   xml:space="preserve"
   inkscape:version="1.2.2 (732a01da63, 2022-12-09)"
   xmlns:inkscape="http://www.inkscape.org/namespaces/inkscape"
   xmlns:sodipodi="http://sodipodi.sourceforge.net/DTD/sodipodi-0.dtd"
   xmlns="http://www.w3.org/2000/svg"
   xmlns:svg="http://www.w3.org/2000/svg"><sodipodi:namedview
     id="namedview107"
     pagecolor="#505050"
     bordercolor="#ffffff"
     borderopacity="1"
     inkscape:showpageshadow="0"
     inkscape:pageopacity="0"
     inkscape:pagecheckerboard="1"
     inkscape:deskcolor="#505050"
     showgrid="false"
     inkscape:zoom="2.0053476"
     inkscape:cx="17.952"
     inkscape:cy="-21.692"
     inkscape:window-width="1920"
     inkscape:window-height="991"
     inkscape:window-x="-9"
     inkscape:window-y="-9"
     inkscape:window-maximized="1"
     inkscape:current-layer="g1039" /><defs
     id="defs103"><filter
       id="filter0_d_1_2"
       x="56.535999"
       y="15.0081"
       width="125.938"
       height="19.184"
       filterUnits="userSpaceOnUse"
       color-interpolation-filters="sRGB"><feFlood
         flood-opacity="0"
         result="BackgroundImageFix"
         id="feFlood86" /><feColorMatrix
         in="SourceAlpha"
         type="matrix"
         values="0 0 0 0 0 0 0 0 0 0 0 0 0 0 0 0 0 0 127 0"
         result="hardAlpha"
         id="feColorMatrix88" /><feOffset
         dy="1"
         id="feOffset90" /><feGaussianBlur
         stdDeviation="0.5"
         id="feGaussianBlur92" /><feComposite
         in2="hardAlpha"
         operator="out"
         id="feComposite94" /><feColorMatrix
         type="matrix"
         values="0 0 0 0 0 0 0 0 0 0 0 0 0 0 0 0 0 0 0.25 0"
         id="feColorMatrix96" /><feBlend
         mode="normal"
         in2="BackgroundImageFix"
         result="effect1_dropShadow_1_2"
         id="feBlend98" /><feBlend
         mode="normal"
         in="SourceGraphic"
         in2="effect1_dropShadow_1_2"
         result="shape"
         id="feBlend100" /></filter></defs><g
     style="fill:none;stroke-width:0.875298"
     id="g1039"
     transform="matrix(1.1424683,0,0,1.1424683,-3.5078623,1.7792079)"><path
       d="M 16.369295,4.4041066 38.893717,19.42042 16.369295,34.436659 c 2.300188,1.177473 4.859562,1.765202 7.678875,1.765202 4.684967,0 8.654312,-1.624091 11.905768,-4.875673 3.251582,-3.251456 4.875798,-7.220801 4.875798,-11.905768 0,-4.684967 -1.624216,-8.654311 -4.875798,-11.9058926 C 30.074503,2.5620302 22.790386,1.1937878 16.369295,4.4041066 Z m 7.678875,0.426793 c 7.065088,0 12.963278,5.0345446 14.302757,11.7077714 L 35.62275,14.718837 C 33.76402,10.152197 29.279326,6.9307003 24.04817,6.9307003 h -0.109263 l -2.73145,-1.8232318 c 0.918917,-0.181719 1.868675,-0.2765689 2.840713,-0.2765689 z m -0.0068,11.9673344 c -0.727958,0 -1.344514,0.255156 -1.854072,0.764715 -0.509559,0.509558 -0.764715,1.129513 -0.764715,1.857471 0,0.727959 0.255156,1.347787 0.764715,1.857346 0.509558,0.509684 1.126114,0.764841 1.854072,0.764841 0.727959,0 1.347788,-0.255157 1.857346,-0.764841 0.509559,-0.509559 0.764842,-1.129387 0.764842,-1.857346 0,-0.727958 -0.255283,-1.347913 -0.764842,-1.857471 -0.509558,-0.509559 -1.129387,-0.764715 -1.857346,-0.764715 z m -8.733867,4.370269 c -0.727959,0 -1.347913,0.255283 -1.857471,0.764841 -0.509559,0.509558 -0.761443,1.126114 -0.761443,1.854073 0,0.727832 0.251884,1.347787 0.761443,1.857345 0.509558,0.509559 1.129512,0.764841 1.857471,0.764841 0.727959,0 1.347787,-0.255282 1.857345,-0.764841 0.509559,-0.509558 0.764842,-1.129513 0.764842,-1.857345 0,-0.727959 -0.255283,-1.344515 -0.764842,-1.854073 -0.509556,-0.509558 -1.129384,-0.764841 -1.857343,-0.764841 z m 23.043422,1.133667 c -1.339479,6.673226 -7.237669,11.707759 -14.302757,11.707759 -0.972038,0 -1.921796,-0.09491 -2.840713,-0.276556 l 2.73145,-1.823232 h 0.109263 c 5.231156,0 9.71585,-3.221497 11.57458,-7.788138 z"
       fill="#fff8f4"
       id="path1018"
       style="stroke-width:0.766146" /><path
       d="m 24.04817,40.398166 c -2.90189,0 -5.629061,-0.550721 -8.181384,-1.652037 -2.552198,-1.101316 -4.772378,-2.596004 -6.6603748,-4.483938 -1.887997,-1.88806 -3.38266,-4.108189 -4.483988,-6.660513 -1.101329,-2.552198 -1.651999,-5.279368 -1.651999,-8.181258 0,-2.90189 0.55067,-5.629059 1.651999,-8.181383 C 5.8237512,8.6868391 7.3184142,6.4666597 9.2064112,4.5786631 11.094408,2.690666 13.314588,1.1959907 15.866786,0.09466212 18.419109,-1.0066664 21.14628,-1.5573368 24.04817,-1.5573368 c 2.90189,0 5.62906,0.5506704 8.181384,1.65199892 2.552198,1.10132858 4.772327,2.59600388 6.660387,4.48400098 1.887933,1.8879966 3.382621,4.108176 4.483937,6.6603739 1.101316,2.552324 1.652037,5.279493 1.652037,8.181383 0,2.90189 -0.550721,5.62906 -1.652037,8.181258 -1.101316,2.552324 -2.596004,4.772453 -4.483937,6.660513 -1.88806,1.887934 -4.108189,3.382622 -6.660387,4.483938 -2.552324,1.101316 -5.279494,1.652037 -8.181384,1.652037 z m -7.679379,-5.961758 c 2.300314,1.177472 4.860066,1.766209 7.679379,1.766209 4.684967,0 8.653305,-1.625728 11.904887,-4.87731 3.251582,-3.251582 4.877309,-7.21992 4.877309,-11.904887 0,-4.684967 -1.625727,-8.653304 -4.877309,-11.9048856 -3.251582,-3.2515437 -7.21992,-4.8773222 -11.904887,-4.8773222 -2.819313,0 -5.379065,0.5887364 -7.679379,1.7662217 L 38.89271,19.42042 Z M 38.351556,22.302421 c -1.339353,6.673353 -7.238298,11.706501 -14.303386,11.706501 -0.972038,0 -1.921922,-0.09529 -2.840965,-0.276934 l 2.731954,-1.821218 0.109011,3.78e-4 c 5.231156,0 9.715598,-3.222756 11.574328,-7.789397 z M 21.207205,5.1088657 c 0.919043,-0.181719 1.868927,-0.2769591 2.840965,-0.2769591 7.065088,0 12.964033,5.0331606 14.303386,11.7065124 l -2.729058,-1.81933 C 33.763768,10.152448 29.279326,6.9296933 24.04817,6.9296933 l -0.109011,3.776e-4 z M 17.163843,21.931833 c -0.509558,-0.509558 -1.128254,-0.764337 -1.856212,-0.764337 -0.727959,0 -1.346654,0.254779 -1.856213,0.764337 -0.509558,0.509559 -0.764337,1.128254 -0.764337,1.856213 0,0.727959 0.254779,1.346654 0.764337,1.856213 0.509559,0.509558 1.128254,0.764337 1.856213,0.764337 0.727958,0 1.346654,-0.254779 1.856212,-0.764337 0.509559,-0.509559 0.764338,-1.128254 0.764338,-1.856213 0,-0.727959 -0.254779,-1.346654 -0.764338,-1.856213 z m 8.735253,-4.367625 c -0.509558,-0.509559 -1.128254,-0.764338 -1.856213,-0.764338 -0.727959,0 -1.34678,0.254779 -1.856338,0.764338 -0.509433,0.509558 -0.764212,1.128254 -0.764212,1.856212 0,0.727959 0.254779,1.346655 0.764212,1.856213 0.509558,0.509558 1.128379,0.764338 1.856338,0.764338 0.727959,0 1.346655,-0.25478 1.856213,-0.764338 0.509558,-0.509558 0.764338,-1.128254 0.764338,-1.856213 0,-0.727958 -0.25478,-1.346654 -0.764338,-1.856212 z"
       fill="#3a343c"
       id="path1020"
       style="stroke-width:0.766146" /><rect
       width="42.798882"
       height="35.246136"
       fill="#49285b"
       id="rect1022"
       x="54.888542"
       y="1.797352"
       style="stroke-width:0.766146" /><path
       d="m 69.842971,27.245063 c -1.616287,0 -3.043755,-0.347427 -4.282405,-1.042279 -1.23865,-0.709958 -2.212954,-1.676709 -2.922912,-2.900253 -0.694852,-1.23865 -1.042279,-2.651013 -1.042279,-4.23709 0,-1.616287 0.347427,-3.036203 1.042279,-4.259747 0.709958,-1.23865 1.684262,-2.205401 2.922912,-2.900254 1.23865,-0.709958 2.666118,-1.064937 4.282405,-1.064937 0.845908,0 1.669157,0.143503 2.469748,0.430507 0.80059,0.271899 1.533206,0.649536 2.197848,1.132911 0.664641,0.483376 1.200886,1.034726 1.608734,1.654051 L 74.6012,15.100251 c -0.30211,-0.483376 -0.709958,-0.913882 -1.223545,-1.291519 -0.513586,-0.392743 -1.080042,-0.694853 -1.699367,-0.906329 -0.604219,-0.211477 -1.215992,-0.317216 -1.835317,-0.317216 -1.223544,0 -2.311139,0.279452 -3.262785,0.838355 -0.951646,0.543797 -1.699367,1.299072 -2.243165,2.265823 -0.543797,0.966751 -0.815696,2.09211 -0.815696,3.376076 0,1.23865 0.264346,2.348904 0.793038,3.33076 0.543798,0.966751 1.291519,1.729579 2.243165,2.288482 0.966751,0.558903 2.061899,0.838354 3.285443,0.838354 1.012068,0 1.910845,-0.211477 2.69633,-0.63443 0.800591,-0.422954 1.427468,-1.012068 1.880633,-1.767342 0.453165,-0.755275 0.6873,-1.616287 0.702405,-2.583039 h -3.897216 v -1.65405 h 5.732533 v 1.495443 c 0,1.374599 -0.309663,2.575485 -0.928988,3.602658 -0.604219,1.027174 -1.442574,1.827764 -2.515063,2.401773 -1.07249,0.574008 -2.296034,0.861013 -3.670634,0.861013 z m 15.324265,0 c -1.1027,0 -2.084557,-0.249241 -2.94557,-0.747722 -0.845907,-0.513586 -1.510548,-1.215992 -1.993924,-2.107215 -0.483376,-0.891224 -0.725063,-1.918397 -0.725063,-3.08152 0,-1.163122 0.234135,-2.190295 0.702405,-3.081519 0.483375,-0.891224 1.148017,-1.586076 1.993924,-2.084557 0.861013,-0.513587 1.835317,-0.77038 2.922912,-0.77038 1.117806,0 2.099663,0.256793 2.94557,0.77038 0.861013,0.498481 1.525654,1.193333 1.993924,2.084557 0.483376,0.891224 0.725064,1.918397 0.725064,3.081519 0,1.163123 -0.241688,2.190296 -0.725064,3.08152 -0.46827,0.891223 -1.125359,1.593629 -1.971266,2.107215 -0.845907,0.498481 -1.820211,0.747722 -2.922912,0.747722 z m 0,-1.676709 c 0.755275,0 1.412363,-0.181266 1.971266,-0.543798 0.558903,-0.362532 0.996963,-0.861013 1.314178,-1.495443 0.332321,-0.634431 0.498481,-1.374599 0.498481,-2.220507 0,-0.845907 -0.16616,-1.586076 -0.498481,-2.220506 -0.317215,-0.634431 -0.762827,-1.132912 -1.336836,-1.495444 -0.574008,-0.362531 -1.23865,-0.543797 -1.993924,-0.543797 -0.740169,0 -1.397258,0.181266 -1.971266,0.543797 -0.558903,0.362532 -1.004515,0.861013 -1.336836,1.495444 -0.317215,0.63443 -0.475823,1.374599 -0.475823,2.220506 0,0.830802 0.158608,1.570971 0.475823,2.220507 0.332321,0.63443 0.785486,1.132911 1.359494,1.495443 0.589114,0.362532 1.253756,0.543798 1.993924,0.543798 z"
       fill="#fff8f4"
       id="path1024"
       style="stroke-width:0.766146" /><path
       d="M 105.22506,26.343769 V 12.245314 h 4.59207 c 0.913,0 1.71862,0.181266 2.41687,0.543797 0.7116,0.362532 1.26219,0.866048 1.65154,1.510549 0.40281,0.644501 0.60422,1.383033 0.60422,2.215472 0,0.926469 -0.2685,1.738767 -0.80563,2.437018 -0.52366,0.684782 -1.21511,1.188299 -2.07449,1.510549 l 3.44406,5.88107 h -1.87308 l -3.24265,-5.55882 c -0.094,0.01347 -0.18794,0.02014 -0.28197,0.02014 -0.094,0 -0.18794,0 -0.28197,0 h -2.43702 v 5.538679 z m 1.71195,-7.10965 h 3.1218 c 0.51019,0 0.96676,-0.114172 1.36957,-0.342391 0.40281,-0.241688 0.72506,-0.563938 0.96675,-0.966751 0.25516,-0.416282 0.38267,-0.886188 0.38267,-1.409845 0,-0.805626 -0.28197,-1.456799 -0.84591,-1.953643 -0.55046,-0.510188 -1.26886,-0.765345 -2.15504,-0.765345 h -2.83984 z m 15.64878,7.351337 c -0.98009,0 -1.84614,-0.221547 -2.59814,-0.664641 -0.75187,-0.456563 -1.34262,-1.080924 -1.77238,-1.87308 -0.41615,-0.792157 -0.62436,-1.705284 -0.62436,-2.739129 0,-1.033845 0.20821,-1.946971 0.62436,-2.739128 0.42976,-0.792157 1.01383,-1.409846 1.75224,-1.85294 0.752,-0.456563 1.61125,-0.684782 2.578,-0.684782 0.93994,0 1.75224,0.235016 2.43753,0.704923 0.68478,0.456563 1.21473,1.101064 1.59111,1.933502 0.37512,0.832438 0.56394,1.812659 0.56394,2.940535 h -7.91578 c 0.0672,1.101064 0.41628,1.960315 1.04731,2.578003 0.63116,0.617689 1.42999,0.92647 2.39674,0.92647 0.71172,0 1.30914,-0.167797 1.79252,-0.503516 0.49646,-0.33572 0.87913,-0.778814 1.14852,-1.329283 l 1.3897,0.704923 c -0.25553,0.523657 -0.59792,0.98022 -1.02717,1.369564 -0.41666,0.389344 -0.91388,0.691453 -1.49091,0.906329 -0.56394,0.214876 -1.19497,0.32225 -1.89323,0.32225 z m -3.24264,-6.324164 h 6.06284 c -0.0403,-0.577407 -0.19511,-1.074126 -0.46324,-1.490408 -0.25553,-0.416282 -0.59125,-0.738532 -1.00753,-0.966751 -0.41616,-0.228219 -0.88619,-0.342391 -1.40985,-0.342391 -0.51018,0 -1.00023,0.114172 -1.47026,0.342391 -0.46991,0.214876 -0.85925,0.537126 -1.16816,0.966751 -0.30878,0.416282 -0.49005,0.913001 -0.5438,1.490408 z m 14.15686,6.324164 c -0.73891,0 -1.38341,-0.107374 -1.9335,-0.32225 -0.55009,-0.228219 -1.01333,-0.523657 -1.3897,-0.886189 -0.36254,-0.362531 -0.62436,-0.758673 -0.78549,-1.188298 l 1.40985,-0.584079 c 0.22784,0.456564 0.57023,0.825767 1.02717,1.107736 0.45694,0.281969 0.96046,0.422954 1.51055,0.422954 0.63065,0 1.16186,-0.120844 1.59111,-0.362532 0.42925,-0.255157 0.6445,-0.610891 0.6445,-1.067454 0,-0.416283 -0.16113,-0.751876 -0.48338,-1.007033 -0.3084,-0.255157 -0.77163,-0.463235 -1.3897,-0.62436 l -0.96675,-0.261829 c -0.91262,-0.241687 -1.6251,-0.604219 -2.13491,-1.087595 -0.50981,-0.496844 -0.76535,-1.053985 -0.76535,-1.671674 0,-0.953282 0.30841,-1.691814 0.92647,-2.215471 0.63066,-0.537126 1.56468,-0.805626 2.79955,-0.805626 0.59038,0 1.12788,0.08723 1.61126,0.261828 0.48337,0.174595 0.90003,0.422954 1.24872,0.745205 0.34868,0.308781 0.60422,0.67811 0.76534,1.107735 l -1.40984,0.62436 c -0.17498,-0.456563 -0.46324,-0.785485 -0.86605,-0.986891 -0.40281,-0.201407 -0.89248,-0.30211 -1.47027,-0.30211 -0.61807,0 -1.10144,0.134313 -1.45013,0.402813 -0.34868,0.255157 -0.52365,0.617688 -0.52365,1.087595 0,0.2685 0.14098,0.523657 0.42295,0.765345 0.29582,0.228218 0.72506,0.416282 1.289,0.563938 l 1.00704,0.261828 c 0.65834,0.161125 1.20843,0.402813 1.65153,0.725064 0.44309,0.308781 0.77919,0.664641 1.00703,1.067454 0.22784,0.402813 0.34239,0.832438 0.34239,1.289002 0,0.604219 -0.16112,1.127876 -0.48337,1.57097 -0.32225,0.443095 -0.75905,0.785486 -1.30915,1.027173 -0.55009,0.228219 -1.182,0.342391 -1.89322,0.342391 z m 10.44923,0 c -0.9806,0 -1.73839,-0.255156 -2.27589,-0.765344 -0.53751,-0.510188 -0.80563,-1.22858 -0.80563,-2.15505 V 17.70343 h -1.75224 v -1.429986 h 1.75224 v -3.141942 h 1.61125 v 3.141942 h 3.0211 v 1.429986 h -3.0211 v 5.800507 c 0,0.510188 0.13469,0.906329 0.40282,1.188298 0.28196,0.2685 0.67093,0.402813 1.16815,0.402813 0.16113,0 0.31596,-0.02014 0.46324,-0.06042 0.16112,-0.05375 0.36882,-0.174594 0.62436,-0.362531 l 0.62436,1.309142 c -0.34869,0.228219 -0.66464,0.382672 -0.94661,0.463235 -0.28197,0.09403 -0.57023,0.140984 -0.86605,0.140984 z m 7.75415,0 c -1.182,0 -2.10847,-0.2685 -2.77941,-0.805626 -0.65835,-0.550469 -0.98689,-1.309142 -0.98689,-2.275893 0,-1.020502 0.3361,-1.799189 1.00703,-2.336315 0.68478,-0.550469 1.63769,-0.825767 2.85997,-0.825767 h 2.79955 c -0.0667,-0.953282 -0.30211,-1.665002 -0.70492,-2.134909 -0.40281,-0.483375 -1.00703,-0.725063 -1.81266,-0.725063 -0.55009,0 -1.02717,0.114172 -1.42998,0.342391 -0.38897,0.214875 -0.71122,0.563938 -0.96675,1.047314 l -1.45013,-0.563939 c 0.25553,-0.469906 0.56394,-0.872719 0.92647,-1.208439 0.36253,-0.349062 0.78548,-0.610891 1.26886,-0.785485 0.48337,-0.187937 1.03347,-0.281969 1.65153,-0.281969 0.94032,0 1.71196,0.187937 2.31618,0.563938 0.61806,0.362532 1.0813,0.906329 1.3897,1.631393 0.30841,0.711594 0.45694,1.597783 0.4431,2.658566 l -0.0201,5.458116 h -1.49041 l -0.0806,-1.349424 c -0.29582,0.510188 -0.69108,0.906329 -1.1883,1.188298 -0.49723,0.2685 -1.0813,0.402813 -1.75224,0.402813 z m 0.0806,-1.409845 c 0.57779,0 1.0813,-0.120844 1.51055,-0.362532 0.42925,-0.255157 0.75905,-0.610891 0.98689,-1.067454 0.24169,-0.456564 0.36254,-1.007033 0.36254,-1.651533 v -0.402813 h -2.4773 c -0.94032,0 -1.61126,0.154453 -2.01407,0.463235 -0.38897,0.308781 -0.58408,0.751875 -0.58408,1.329282 0,0.523657 0.19511,0.939939 0.58408,1.248721 0.38897,0.295438 0.93276,0.443094 1.63139,0.443094 z m 11.455,1.409845 c -0.77794,0 -1.46272,-0.154453 -2.05435,-0.463235 -0.57653,-0.32225 -1.03347,-0.825766 -1.36956,-1.510548 -0.32225,-0.698251 -0.48338,-1.597783 -0.48338,-2.698847 v -5.639382 h 1.61125 v 5.156006 c 0,0.993564 0.11455,1.752237 0.34239,2.275894 0.2291,0.523656 0.5438,0.886188 0.94661,1.087595 0.41666,0.187937 0.8799,0.281969 1.38971,0.281969 0.8736,0 1.55083,-0.315579 2.03421,-0.946611 0.49722,-0.631032 0.7452,-1.510549 0.7452,-2.638425 v -5.216428 h 1.61125 v 10.070325 h -1.51055 l -0.0806,-1.510549 c -0.33484,0.563938 -0.77164,1.000361 -1.30914,1.309142 -0.53625,0.295438 -1.16061,0.443094 -1.87308,0.443094 z m 8.3911,-0.241687 V 16.273444 h 1.61125 v 1.792518 c 0.40281,-0.631032 0.92017,-1.094267 1.55083,-1.389705 0.6445,-0.295438 1.31669,-0.443094 2.01406,-0.443094 v 1.510548 c -0.59037,0 -1.1606,0.100703 -1.71195,0.30211 -0.53625,0.187937 -0.97934,0.503516 -1.32929,0.946611 -0.34868,0.443094 -0.52365,1.047313 -0.52365,1.812658 v 5.538679 z m 10.79287,0.241687 c -1.18075,0 -2.10722,-0.2685 -2.77941,-0.805626 -0.65709,-0.550469 -0.9869,-1.309142 -0.9869,-2.275893 0,-1.020502 0.3361,-1.799189 1.00704,-2.336315 0.68478,-0.550469 1.63894,-0.825767 2.85997,-0.825767 h 2.79955 c -0.0667,-0.953282 -0.30211,-1.665002 -0.70492,-2.134909 -0.40282,-0.483375 -1.00704,-0.725063 -1.81266,-0.725063 -0.55009,0 -1.02717,0.114172 -1.42999,0.342391 -0.38896,0.214875 -0.71121,0.563938 -0.96675,1.047314 l -1.45013,-0.563939 c 0.25554,-0.469906 0.56394,-0.872719 0.92647,-1.208439 0.36254,-0.349062 0.78549,-0.610891 1.26887,-0.785485 0.48337,-0.187937 1.03472,-0.281969 1.65153,-0.281969 0.94031,0 1.71195,0.187937 2.31617,0.563938 0.61807,0.362532 1.0813,0.906329 1.38971,1.631393 0.30966,0.711594 0.45694,1.597783 0.44309,2.658566 l -0.0201,5.458116 h -1.49041 l -0.0806,-1.349424 c -0.29456,0.510188 -0.69108,0.906329 -1.1883,1.188298 -0.49596,0.2685 -1.08004,0.402813 -1.75223,0.402813 z m 0.0806,-1.409845 c 0.57778,0 1.0813,-0.120844 1.51055,-0.362532 0.4305,-0.255157 0.75905,-0.610891 0.98689,-1.067454 0.24169,-0.456564 0.36253,-1.007033 0.36253,-1.651533 v -0.402813 h -2.4773 c -0.93906,0 -1.61125,0.154453 -2.01406,0.463235 -0.38897,0.308781 -0.58408,0.751875 -0.58408,1.329282 0,0.523657 0.19511,0.939939 0.58408,1.248721 0.39022,0.295438 0.93402,0.443094 1.63139,0.443094 z m 7.81079,1.168158 V 16.273444 h 1.51055 l 0.0806,1.510549 c 0.33483,-0.563939 0.77163,-0.993564 1.30914,-1.289002 0.53624,-0.308781 1.1606,-0.463235 1.87308,-0.463235 0.79178,0 1.47656,0.161125 2.05434,0.483376 0.59038,0.308781 1.04732,0.805626 1.36957,1.490408 0.33484,0.684782 0.49596,1.584439 0.48337,2.698847 v 5.639382 h -1.61125 v -5.156007 c 0,-0.993563 -0.11455,-1.752236 -0.34239,-2.275893 -0.2291,-0.523657 -0.5438,-0.879517 -0.94661,-1.067455 -0.40281,-0.201406 -0.85975,-0.302109 -1.36956,-0.302109 -0.88619,0 -1.57853,0.315579 -2.07449,0.94661 -0.48338,0.617689 -0.72506,1.49708 -0.72506,2.638425 v 5.216429 z m 15.823,0.241687 c -0.9806,0 -1.73965,-0.255156 -2.27589,-0.765344 -0.5375,-0.510188 -0.80563,-1.22858 -0.80563,-2.15505 V 17.70343 h -1.75223 v -1.429986 h 1.75223 v -3.141942 h 1.61125 v 3.141942 h 3.0211 v 1.429986 h -3.0211 v 5.800507 c 0,0.510188 0.13344,0.906329 0.40282,1.188298 0.28197,0.2685 0.67093,0.402813 1.16816,0.402813 0.16112,0 0.31469,-0.02014 0.46323,-0.06042 0.16113,-0.05375 0.36883,-0.174594 0.62436,-0.362531 l 0.62436,1.309142 c -0.34994,0.228219 -0.66464,0.382672 -0.94661,0.463235 -0.28197,0.09403 -0.57149,0.140984 -0.86605,0.140984 z"
       fill="#211a14"
       id="path1026"
       style="stroke-width:0.766146;fill:#fff8f4;fill-opacity:1" /></g></svg>
